<?xml version="1.0" encoding="utf-8"?>
<!-- Generator: Adobe Illustrator 24.0.0, SVG Export Plug-In . SVG Version: 6.00 Build 0)  -->
<svg version="1.1" id="Camada_1" xmlns="http://www.w3.org/2000/svg" xmlns:xlink="http://www.w3.org/1999/xlink" x="0px" y="0px"
	 viewBox="0 0 936.13 505.3" style="enable-background:new 0 0 936.13 505.3;" xml:space="preserve">
<style type="text/css">
	.st0{fill:#E4E4E4;}
	.st1{fill:#F2F2F2;}
	.st2{fill:#E6E6E6;}
	.st3{fill:#3F3D56;}
	.st4{fill:#AA4500;}
	.st5{fill:#FFB351;}
	.st6{fill:#2F2E41;}
	.st7{fill:#CCCCCC;}
	.st8{fill:#FFFFFF;}
	.st9{fill:#CACACA;}
	.st10{fill:#CC6917;}
	.st11{fill:#9E616A;}
	.st12{fill:#FFB6B6;}
</style>
<path class="st0" d="M59.3,422.01l-2.92,14.65c-0.22,1.12-0.45,2.26-0.7,3.39c-2.44-0.51-4.97-0.36-7.34,0.41
	c1.88,2.69,3.56,5.5,5.04,8.43c-1.84,5.67-4.54,10.91-9.06,14.7c-6.14,5.03-14.46,6.5-21.95,3.86l0.13-0.58
	c-4.86-9.43-2.22-21.32,3.82-30.03c3.08-4.3,6.73-8.16,10.85-11.47c4.08-3.4,8.49-6.45,12.86-9.46c2.73-1.87,6.46-1.18,8.33,1.54
	C59.27,418.78,59.61,420.42,59.3,422.01z"/>
<path id="b311a411-101b-4365-a37b-2cdfec47a637-413" class="st1" d="M23.4,502.7c-1.23-8.95-2.49-18.02-1.63-27.07
	c0.77-8.04,3.22-15.89,8.21-22.32c2.65-3.41,5.87-6.33,9.53-8.63c0.95-0.6,1.83,0.91,0.88,1.51c-6.32,3.99-11.21,9.89-13.96,16.85
	c-3.04,7.73-3.53,16.16-3,24.37c0.32,4.97,0.99,9.9,1.66,14.83c0.11,0.46-0.15,0.93-0.61,1.07C24.02,503.43,23.54,503.16,23.4,502.7
	L23.4,502.7z"/>
<path class="st2" d="M33.95,53.63c42.84-0.74,85.68-0.85,128.53-0.32c42.84,0.53,85.67,1.71,128.48,3.52
	c24.02,1.02,48.04,2.24,72.04,3.66c1.93,0.11,1.92-2.89,0-3c-42.77-2.53-85.57-4.42-128.4-5.68c-42.83-1.25-85.66-1.87-128.51-1.84
	C82.04,50,57.99,50.21,33.95,50.63C32.02,50.67,32.02,53.67,33.95,53.63L33.95,53.63z"/>
<path class="st2" d="M332.49,34.82l18.73-1.39c1.91-0.14,1.93-3.14,0-3l-18.73,1.39C330.57,31.97,330.56,34.97,332.49,34.82z"/>
<path class="st2" d="M332.49,52.82l18.73-1.39c1.91-0.14,1.93-3.14,0-3l-18.73,1.39C330.57,49.97,330.56,52.97,332.49,52.82z"/>
<path class="st2" d="M331.08,44.6l26.63,2.42c1.92,0.17,1.91-2.83,0-3l-26.63-2.42C329.16,41.43,329.17,44.43,331.08,44.6z"/>
<path class="st2" d="M45.04,30.79c-2.66-0.02-5.08,1.56-6.13,4.01c-1.19,2.41-0.62,5.31,1.37,7.1c1.86,1.58,4.4,2.1,6.73,1.37
	c2.4-0.84,4.01-3.1,4.02-5.64c0.11-2.82-1.56-5.41-4.18-6.47c-0.8-0.22-1.62,0.25-1.85,1.05c-0.2,0.8,0.26,1.61,1.05,1.85
	c0.26,0.1-0.24-0.13,0.01,0c0.1,0.05,0.2,0.1,0.3,0.16c0.08,0.05,0.16,0.1,0.25,0.16c0.28,0.18-0.14-0.13,0.04,0.03
	c0.16,0.14,0.31,0.28,0.45,0.44c0.05,0.06,0.26,0.22,0.1,0.11c-0.12-0.09-0.05-0.07,0,0c0.04,0.05,0.07,0.11,0.11,0.16
	c0.12,0.18,0.22,0.36,0.32,0.55c0.02,0.04,0.04,0.09,0.06,0.13c0.04,0.08,0.1,0.1,0,0c-0.09-0.1-0.03-0.09,0,0
	c0.02,0.06,0.05,0.12,0.07,0.19c0.07,0.2,0.13,0.41,0.18,0.62c0.02,0.1,0.04,0.19,0.06,0.29c0.07,0.34-0.01-0.21,0.01,0.04
	c0.01,0.21,0.03,0.43,0.03,0.64c0,0.1-0.01,0.2-0.01,0.29c0,0.05-0.01,0.1-0.01,0.15c-0.02,0.24-0.02-0.09,0.02-0.11
	c-0.07,0.2-0.11,0.41-0.14,0.62c-0.03,0.09-0.06,0.18-0.09,0.28c-0.1,0.32,0.1-0.18-0.01,0.04c-0.09,0.19-0.19,0.37-0.31,0.55
	c-0.05,0.07-0.23,0.24-0.08,0.13c0.16-0.13-0.09,0.09-0.14,0.15c-0.07,0.07-0.14,0.14-0.21,0.21C47,39.91,46.95,39.96,46.9,40
	c-0.01,0,0.25-0.17,0.11-0.08c-0.18,0.11-0.35,0.24-0.53,0.33c-0.02,0.01-0.26,0.12-0.26,0.13c-0.01-0.04,0.31-0.11,0.09-0.04
	c-0.05,0.01-0.09,0.03-0.14,0.05c-0.2,0.07-0.4,0.12-0.61,0.16c-0.05,0.01-0.1,0.01-0.14,0.03c-0.16,0.04,0.15-0.02,0.16-0.02
	c-0.11,0-0.23,0.01-0.34,0.03c-0.21,0.01-0.43,0.01-0.64,0c-0.05,0-0.1-0.01-0.15-0.01c-0.11-0.01-0.2-0.09-0.05,0
	c0.12,0.07,0.11,0.02,0,0c-0.05-0.01-0.1-0.02-0.15-0.03c-0.21-0.04-0.42-0.09-0.62-0.15c-0.11-0.03-0.22-0.07-0.33-0.11
	c-0.05-0.01-0.09-0.03-0.14-0.05c0-0.01,0.28,0.13,0.13,0.05c-0.19-0.1-0.38-0.19-0.56-0.3c-0.1-0.06-0.19-0.12-0.29-0.19
	c-0.04-0.03-0.08-0.05-0.12-0.09c0-0.01,0.23,0.2,0.11,0.09c-0.15-0.15-0.32-0.28-0.46-0.43c-0.03-0.04-0.06-0.07-0.1-0.11
	l-0.03-0.04c-0.08-0.1-0.08-0.1,0,0c0.08,0.02,0.08,0.11,0,0c-0.03-0.04-0.06-0.08-0.08-0.12c-0.12-0.17-0.23-0.36-0.31-0.55
	c0.01-0.01,0.13,0.36,0.04,0.08c-0.02-0.05-0.04-0.1-0.05-0.16c-0.03-0.1-0.06-0.21-0.09-0.32c-0.03-0.11-0.04-0.21-0.07-0.32
	c-0.04-0.18,0.03,0.14,0.02,0.13c-0.02-0.02-0.01-0.18-0.02-0.21c-0.01-0.24,0.01-0.46,0.02-0.7c0-0.18-0.01,0.14-0.02,0.13
	c0-0.05,0.01-0.11,0.03-0.16c0.03-0.12,0.05-0.25,0.09-0.37c0.04-0.14,0.08-0.28,0.13-0.41c0.02-0.05,0.04-0.1,0.06-0.15
	c0.06-0.19-0.12,0.23-0.02,0.06c0.14-0.23,0.25-0.49,0.4-0.72c0.04-0.05,0.25-0.36,0.14-0.21c-0.12,0.15,0.12-0.14,0.16-0.19
	c0.18-0.2,0.4-0.37,0.59-0.57c0.11-0.12-0.08,0.06-0.09,0.07c0.06-0.04,0.12-0.09,0.18-0.13c0.1-0.07,0.21-0.14,0.32-0.2
	c0.12-0.07,0.26-0.13,0.38-0.2c0.14-0.09-0.11,0.04-0.11,0.04c0.06-0.03,0.13-0.06,0.2-0.08c0.12-0.04,0.62-0.26,0.73-0.19
	c0,0-0.38,0.03-0.08,0.01c0.07,0,0.14-0.01,0.22-0.01c0.15-0.01,0.29,0,0.44,0.01c0.83-0.01,1.49-0.67,1.5-1.5
	C46.52,31.47,45.86,30.81,45.04,30.79L45.04,30.79z"/>
<path class="st2" d="M66.04,30.79c-2.66-0.02-5.08,1.56-6.13,4.01c-1.19,2.41-0.62,5.31,1.37,7.1c1.86,1.58,4.4,2.1,6.73,1.37
	c2.4-0.84,4.01-3.1,4.02-5.64c0.11-2.82-1.56-5.41-4.18-6.47c-0.8-0.22-1.62,0.25-1.85,1.05c-0.2,0.8,0.26,1.61,1.05,1.85
	c0.26,0.1-0.24-0.13,0.01,0c0.1,0.05,0.2,0.1,0.3,0.16c0.08,0.05,0.16,0.1,0.25,0.16c0.28,0.18-0.14-0.13,0.04,0.03
	c0.16,0.14,0.31,0.28,0.45,0.44c0.05,0.06,0.26,0.22,0.1,0.11c-0.12-0.09-0.05-0.07,0,0c0.04,0.05,0.07,0.11,0.11,0.16
	c0.12,0.18,0.22,0.36,0.32,0.55c0.02,0.04,0.04,0.09,0.06,0.13c0.04,0.08,0.1,0.1,0,0c-0.09-0.1-0.03-0.09,0,0
	c0.02,0.06,0.05,0.12,0.07,0.19c0.07,0.2,0.13,0.41,0.18,0.62c0.02,0.1,0.04,0.19,0.06,0.29c0.07,0.34-0.01-0.21,0.01,0.04
	c0.01,0.21,0.03,0.43,0.03,0.64c0,0.1-0.01,0.2-0.01,0.29c0,0.05-0.01,0.1-0.01,0.15c-0.02,0.24-0.02-0.09,0.02-0.11
	c-0.07,0.2-0.11,0.41-0.14,0.62c-0.03,0.09-0.06,0.18-0.09,0.28c-0.1,0.32,0.1-0.18-0.01,0.04c-0.09,0.19-0.19,0.37-0.31,0.55
	c-0.05,0.07-0.23,0.24-0.08,0.13c0.16-0.13-0.09,0.09-0.14,0.15c-0.07,0.07-0.14,0.14-0.21,0.21C68,39.91,67.95,39.96,67.9,40
	c-0.01,0,0.25-0.17,0.11-0.08c-0.18,0.11-0.35,0.24-0.53,0.33c-0.02,0.01-0.26,0.12-0.26,0.13c-0.01-0.04,0.31-0.11,0.09-0.04
	c-0.05,0.01-0.09,0.03-0.14,0.05c-0.2,0.07-0.4,0.12-0.61,0.16c-0.05,0.01-0.1,0.01-0.14,0.03c-0.16,0.04,0.15-0.02,0.16-0.02
	c-0.11,0-0.23,0.01-0.34,0.03c-0.21,0.01-0.43,0.01-0.64,0c-0.05,0-0.1-0.01-0.15-0.01c-0.11-0.01-0.2-0.09-0.05,0
	c0.12,0.07,0.11,0.02,0,0c-0.05-0.01-0.1-0.02-0.15-0.03c-0.21-0.04-0.42-0.09-0.62-0.15c-0.11-0.03-0.22-0.07-0.33-0.11
	c-0.05-0.01-0.09-0.03-0.14-0.05c0-0.01,0.28,0.13,0.13,0.05c-0.19-0.1-0.38-0.19-0.56-0.3c-0.1-0.06-0.19-0.12-0.29-0.19
	c-0.04-0.03-0.08-0.05-0.12-0.09c0-0.01,0.23,0.2,0.11,0.09c-0.15-0.15-0.32-0.28-0.46-0.43c-0.03-0.04-0.06-0.07-0.1-0.11
	l-0.03-0.04c-0.08-0.1-0.08-0.1,0,0c0.08,0.02,0.08,0.11,0,0c-0.03-0.04-0.06-0.08-0.08-0.12c-0.12-0.17-0.23-0.36-0.31-0.55
	c0.01-0.01,0.13,0.36,0.04,0.08c-0.02-0.05-0.04-0.1-0.05-0.16c-0.03-0.1-0.06-0.21-0.09-0.32c-0.03-0.11-0.04-0.21-0.07-0.32
	c-0.04-0.18,0.03,0.14,0.02,0.13c-0.02-0.02-0.01-0.18-0.02-0.21c-0.01-0.24,0.01-0.46,0.02-0.7c0-0.18-0.01,0.14-0.02,0.13
	c0-0.05,0.01-0.11,0.03-0.16c0.03-0.12,0.05-0.25,0.09-0.37c0.04-0.14,0.08-0.28,0.13-0.41c0.02-0.05,0.04-0.1,0.06-0.15
	c0.06-0.19-0.12,0.23-0.02,0.06c0.14-0.23,0.25-0.49,0.4-0.72c0.04-0.05,0.25-0.36,0.14-0.21c-0.12,0.15,0.12-0.14,0.16-0.19
	c0.18-0.2,0.4-0.37,0.59-0.57c0.11-0.12-0.08,0.06-0.09,0.07c0.06-0.04,0.12-0.09,0.18-0.13c0.1-0.07,0.21-0.14,0.32-0.2
	c0.12-0.07,0.26-0.13,0.38-0.2c0.14-0.09-0.11,0.04-0.11,0.04c0.06-0.03,0.13-0.06,0.2-0.08c0.12-0.04,0.62-0.26,0.73-0.19
	c0,0-0.38,0.03-0.08,0.01c0.07,0,0.14-0.01,0.22-0.01c0.15-0.01,0.29,0,0.44,0.01c0.83-0.01,1.49-0.67,1.5-1.5
	C67.52,31.47,66.86,30.81,66.04,30.79L66.04,30.79z"/>
<path class="st2" d="M87.04,30.79c-2.66-0.02-5.08,1.56-6.13,4.01c-1.19,2.41-0.62,5.31,1.37,7.1c1.86,1.58,4.4,2.1,6.73,1.37
	c2.4-0.84,4.01-3.1,4.02-5.64c0.11-2.82-1.56-5.41-4.18-6.47c-0.8-0.22-1.62,0.25-1.85,1.05c-0.2,0.8,0.26,1.61,1.05,1.85
	c0.26,0.1-0.24-0.13,0.01,0c0.1,0.05,0.2,0.1,0.3,0.16c0.08,0.05,0.16,0.1,0.25,0.16c0.28,0.18-0.14-0.13,0.04,0.03
	c0.16,0.14,0.31,0.28,0.45,0.44c0.05,0.06,0.26,0.22,0.1,0.11c-0.12-0.09-0.05-0.07,0,0c0.04,0.05,0.07,0.11,0.11,0.16
	c0.12,0.18,0.22,0.36,0.32,0.55c0.02,0.04,0.04,0.09,0.06,0.13c0.04,0.08,0.1,0.1,0,0c-0.09-0.1-0.03-0.09,0,0
	c0.02,0.06,0.05,0.12,0.07,0.19c0.07,0.2,0.13,0.41,0.18,0.62c0.02,0.1,0.04,0.19,0.06,0.29c0.07,0.34-0.01-0.21,0.01,0.04
	c0.01,0.21,0.03,0.43,0.03,0.64c0,0.1-0.01,0.2-0.01,0.29c0,0.05-0.01,0.1-0.01,0.15c-0.02,0.24-0.02-0.09,0.02-0.11
	c-0.07,0.2-0.11,0.41-0.14,0.62c-0.03,0.09-0.06,0.18-0.09,0.28c-0.1,0.32,0.1-0.18-0.01,0.04c-0.09,0.19-0.19,0.37-0.31,0.55
	c-0.05,0.07-0.23,0.24-0.08,0.13c0.16-0.13-0.09,0.09-0.14,0.15c-0.07,0.07-0.14,0.14-0.21,0.21C89,39.91,88.95,39.96,88.9,40
	c-0.01,0,0.25-0.17,0.11-0.08c-0.18,0.11-0.35,0.24-0.53,0.33c-0.02,0.01-0.26,0.12-0.26,0.13c-0.01-0.04,0.31-0.11,0.09-0.04
	c-0.05,0.01-0.09,0.03-0.14,0.05c-0.2,0.07-0.4,0.12-0.61,0.16c-0.05,0.01-0.1,0.01-0.14,0.03c-0.16,0.04,0.15-0.02,0.16-0.02
	c-0.11,0-0.23,0.01-0.34,0.03c-0.21,0.01-0.43,0.01-0.64,0c-0.05,0-0.1-0.01-0.15-0.01c-0.11-0.01-0.2-0.09-0.05,0
	c0.12,0.07,0.11,0.02,0,0c-0.05-0.01-0.1-0.02-0.15-0.03c-0.21-0.04-0.42-0.09-0.62-0.15c-0.11-0.03-0.22-0.07-0.33-0.11
	c-0.05-0.01-0.09-0.03-0.14-0.05c0-0.01,0.28,0.13,0.13,0.05c-0.19-0.1-0.38-0.19-0.56-0.3c-0.1-0.06-0.19-0.12-0.29-0.19
	c-0.04-0.03-0.08-0.05-0.12-0.09c0-0.01,0.23,0.2,0.11,0.09c-0.15-0.15-0.32-0.28-0.46-0.43c-0.03-0.04-0.06-0.07-0.1-0.11
	l-0.03-0.04c-0.08-0.1-0.08-0.1,0,0c0.08,0.02,0.08,0.11,0,0c-0.03-0.04-0.06-0.08-0.08-0.12c-0.12-0.17-0.23-0.36-0.31-0.55
	c0.01-0.01,0.13,0.36,0.04,0.08c-0.02-0.05-0.04-0.1-0.05-0.16c-0.03-0.1-0.06-0.21-0.09-0.32c-0.03-0.11-0.04-0.21-0.07-0.32
	c-0.04-0.18,0.03,0.14,0.02,0.13c-0.02-0.02-0.01-0.18-0.02-0.21c-0.01-0.24,0.01-0.46,0.02-0.7c0-0.18-0.01,0.14-0.02,0.13
	c0-0.05,0.01-0.11,0.03-0.16c0.03-0.12,0.05-0.25,0.09-0.37c0.04-0.14,0.08-0.28,0.13-0.41c0.02-0.05,0.04-0.1,0.06-0.15
	c0.06-0.19-0.12,0.23-0.02,0.06c0.14-0.23,0.25-0.49,0.4-0.72c0.04-0.05,0.25-0.36,0.14-0.21c-0.12,0.15,0.12-0.14,0.16-0.19
	c0.18-0.2,0.4-0.37,0.59-0.57c0.11-0.12-0.08,0.06-0.09,0.07c0.06-0.04,0.12-0.09,0.18-0.13c0.1-0.07,0.21-0.14,0.32-0.2
	c0.12-0.07,0.26-0.13,0.38-0.2c0.14-0.09-0.11,0.04-0.11,0.04c0.06-0.03,0.13-0.06,0.2-0.08c0.12-0.04,0.62-0.26,0.73-0.19
	c0,0-0.38,0.03-0.08,0.01c0.07,0,0.14-0.01,0.22-0.01c0.15-0.01,0.29,0,0.44,0.01c0.83-0.01,1.49-0.67,1.5-1.5
	C88.52,31.47,87.86,30.81,87.04,30.79L87.04,30.79z"/>
<path class="st2" d="M390.41,363H22.51c-9.69-0.01-17.54-7.86-17.55-17.55V17.55C4.97,7.86,12.82,0.01,22.51,0h367.91
	c9.69,0.01,17.54,7.86,17.55,17.55v327.91C407.95,355.14,400.1,362.99,390.41,363z M22.51,2C13.92,2.01,6.97,8.96,6.96,17.55v327.91
	c0.01,8.58,6.97,15.54,15.55,15.55h367.91c8.58-0.01,15.54-6.96,15.55-15.55V17.55C405.95,8.96,398.99,2.01,390.41,2L22.51,2z"/>
<path class="st2" d="M21.9,223.11l129.38-0.39l128.72-0.39l72.61-0.22c0.83-0.03,1.48-0.72,1.45-1.55
	c-0.03-0.79-0.66-1.42-1.45-1.45l-129.38,0.39l-128.72,0.39l-72.61,0.22c-0.83,0.03-1.48,0.72-1.45,1.55
	C20.48,222.45,21.11,223.08,21.9,223.11z"/>
<path class="st2" d="M87.17,220.67l0.8-47.24c0.03-1.93-2.97-1.93-3,0l-0.8,47.24C84.13,222.6,87.13,222.61,87.17,220.67z"/>
<path class="st2" d="M149,221.18l1.95-59.37l0.56-16.96c0.06-1.93-2.94-1.93-3,0l-1.95,59.37L146,221.18
	C145.94,223.12,148.94,223.11,149,221.18z"/>
<path class="st2" d="M210.67,116.7c-1.18,21.03-3.35,83.06-4.53,104.09c-0.11,1.93,2.89,1.92,3,0c1.18-21.03,3.35-83.06,4.53-104.09
	C213.78,114.77,210.78,114.78,210.67,116.7z"/>
<path class="st2" d="M272.04,199.69l-0.37,20.21c-0.04,1.93,2.96,1.93,3,0c0.43-23.87,1.55-23.1,1.67-29.83c0.04-1.93-2.96-1.93-3,0
	C273.34,190.07,272.48,175.82,272.04,199.69z"/>
<path class="st2" d="M332.15,146.59l0.34,56.71l0.1,16.24c0.03,0.83,0.72,1.48,1.55,1.45c0.79-0.03,1.42-0.66,1.45-1.45l-0.34-56.71
	l-0.1-16.24c-0.03-0.83-0.72-1.48-1.55-1.45C332.81,145.17,332.18,145.8,332.15,146.59z"/>
<path class="st2" d="M22.14,221.42c-2.48-6.82,3.11-13.39,8.87-16.34c6.89-3.53,14.82-4.33,21.78-7.74
	c10.38-5.08,17.94-14.19,24.67-23.31c6.93-9.39,13.26-19.47,22.06-27.27c4.64-4.2,10.11-7.37,16.07-9.3
	c7.5-2.34,15.46-2.5,23.21-1.56c16.02,1.95,30.87,8.57,46.32,12.77c14.57,3.96,30.63,6.19,44.93,0.03
	c7.27-3.13,13.21-8.39,19.59-12.93c6.18-4.45,13.08-7.78,20.41-9.84c14.36-3.99,30.04-2.93,43.41,3.82
	c12.29,6.12,22.02,16.39,27.47,28.99c6.34,15.14,5.51,32.06,3.44,47.99c-0.54,4.12-1.17,8.22-1.82,12.33
	c-0.3,1.89,2.59,2.7,2.89,0.8c2.58-16.43,5.15-33.38,1.94-49.92c-2.77-14.44-10.71-27.37-22.33-36.38
	c-11.67-9.03-26.17-13.61-40.91-12.91c-7.72,0.36-15.33,2.05-22.47,5c-7.42,3.07-13.7,7.62-20.08,12.4
	c-6.56,4.92-13.33,8.99-21.47,10.6c-7.9,1.56-16.12,0.97-23.99-0.5c-16.23-3.03-31.36-9.99-47.46-13.55
	c-14.91-3.3-31-3.63-44.36,4.79c-10.27,6.48-17.53,16.54-24.49,26.25c-6.9,9.63-13.9,19.93-23.99,26.5
	c-6.16,4.01-13.08,5.49-19.97,7.75c-6.91,2.26-13.54,6.08-16.35,13.16c-1.21,2.91-1.31,6.18-0.26,9.15
	C19.9,224.02,22.8,223.24,22.14,221.42L22.14,221.42z"/>
<polygon class="st2" points="86.17,166.9 86.17,166.91 86.18,166.9 "/>
<path class="st2" d="M91.37,164.15c-1.43-2.54-4.49-3.67-7.22-2.67c-1.33,0.49-2.41,1.49-2.99,2.78c-0.06,0.14-0.09,0.28-0.14,0.42
	c-0.07,0.11-0.14,0.2-0.2,0.31c-1.48,2.94-0.29,6.52,2.65,8c2.18,1.1,4.82,0.75,6.64-0.88C92.35,170.08,92.88,166.76,91.37,164.15z
	 M87.62,166.69C87.63,166.77,87.62,166.84,87.62,166.69z M87.23,165.82C87.22,165.81,87.22,165.81,87.23,165.82z M85.55,166.5
	C85.53,166.47,85.53,166.46,85.55,166.5z M85.95,166.84C86.04,166.87,86.01,166.87,85.95,166.84z M86.13,166.92l0.04-0.02
	c-0.01,0-0.02,0-0.03-0.01l0,0l0.03,0l0.01,0l-0.02,0c0.02,0,0.02,0,0.02,0c0.18-0.08,0.06-0.04-0.05-0.01l-0.01,0
	c-0.06-0.03-0.13-0.06-0.21-0.07c-0.01,0-0.01-0.01-0.02-0.01c-0.06-0.04-0.35-0.27-0.08-0.03c-0.06-0.05-0.12-0.1-0.17-0.16
	c-0.03-0.03-0.06-0.07-0.09-0.11c-0.04-0.06-0.07-0.12-0.1-0.18l-0.01-0.03c0-0.03-0.01-0.04-0.01-0.06c0-0.02,0-0.04,0.01-0.05
	c0.02-0.05,0.03-0.11,0.04-0.17l0.01-0.01c0.04-0.06,0.08-0.13,0.12-0.19c-0.22,0.33,0.09-0.04,0.11-0.08c0-0.01,0,0,0-0.01
	c0.01,0,0.01,0,0.02-0.01c0.07-0.04,0.13-0.08,0.2-0.12c0.08-0.05,0.4-0.14,0.07-0.04c0.08-0.02,0.15-0.05,0.22-0.07
	c0.01,0,0.13-0.02,0.19-0.03c0.05,0,0.1,0,0.11,0c0.02,0,0.05,0,0.07,0c-0.06,0.01,0.19,0.06,0.26,0.07
	c0.01,0.01,0.02,0.01,0.03,0.02c0.06,0.04,0.14,0.08,0.2,0.13c-0.29-0.19,0,0.01,0.06,0.07c0.03,0.03,0.06,0.07,0.09,0.1
	c0.03,0.03,0.05,0.07,0.08,0.11c0.05,0.09,0.1,0.18,0.15,0.26l0.01,0.02c0,0,0,0.01,0,0.01c0.03,0.14,0.06,0.28,0.11,0.41
	c0,0.01,0,0.02,0.01,0.03c0,0.08,0.01,0.15,0.01,0.23l0,0.02C87.16,166.69,86.6,166.69,86.13,166.92L86.13,166.92z"/>
<path class="st2" d="M86.18,166.9C86.18,166.9,86.18,166.9,86.18,166.9L86.18,166.9z"/>
<path class="st2" d="M86.18,166.9L86.18,166.9L86.18,166.9z"/>
<path class="st2" d="M86.18,166.9L86.18,166.9C86.18,166.91,86.18,166.9,86.18,166.9z"/>
<polygon class="st2" points="86.18,166.9 86.18,166.9 86.18,166.9 "/>
<polygon class="st2" points="150.17,138.9 150.17,138.91 150.18,138.9 "/>
<path class="st2" d="M155.37,136.15c-1.43-2.54-4.49-3.67-7.22-2.67c-1.33,0.49-2.41,1.49-2.99,2.78c-0.06,0.14-0.09,0.28-0.14,0.42
	c-0.07,0.11-0.14,0.2-0.2,0.31c-1.48,2.94-0.29,6.52,2.65,8c2.18,1.1,4.82,0.75,6.64-0.88
	C156.35,142.08,156.88,138.76,155.37,136.15z M151.62,138.69C151.63,138.77,151.62,138.84,151.62,138.69z M151.23,137.82
	C151.22,137.81,151.22,137.81,151.23,137.82z M149.55,138.5C149.53,138.47,149.53,138.46,149.55,138.5z M149.95,138.84
	C150.04,138.87,150.01,138.87,149.95,138.84z M150.13,138.92l0.04-0.02c-0.01,0-0.02,0-0.03-0.01l0,0l0.03,0l0.01,0l-0.02,0
	c0.02,0,0.02,0,0.02,0c0.18-0.08,0.06-0.04-0.05-0.01l-0.01,0c-0.06-0.03-0.13-0.06-0.21-0.07c-0.01,0-0.01-0.01-0.02-0.01
	c-0.06-0.04-0.35-0.27-0.08-0.03c-0.06-0.05-0.12-0.1-0.17-0.16c-0.03-0.03-0.06-0.07-0.09-0.11c-0.04-0.06-0.07-0.12-0.1-0.18
	l-0.01-0.03c0-0.03-0.01-0.04-0.01-0.06c0-0.02,0-0.04,0.01-0.05c0.02-0.05,0.03-0.11,0.04-0.17l0.01-0.01
	c0.04-0.06,0.08-0.13,0.12-0.19c-0.22,0.33,0.08-0.04,0.11-0.08c0-0.01,0,0,0-0.01c0.01,0,0.01,0,0.02-0.01
	c0.07-0.04,0.13-0.08,0.2-0.12c0.08-0.05,0.4-0.14,0.07-0.04c0.08-0.02,0.15-0.05,0.22-0.07c0.01,0,0.13-0.02,0.19-0.03
	c0.05,0,0.1,0,0.11,0c0.02,0,0.05,0,0.07,0c-0.06,0.01,0.19,0.06,0.26,0.07c0.01,0.01,0.02,0.01,0.03,0.02
	c0.06,0.04,0.14,0.08,0.2,0.13c-0.29-0.19,0,0.01,0.06,0.07c0.03,0.03,0.06,0.07,0.09,0.1c0.03,0.03,0.05,0.07,0.08,0.11
	c0.05,0.09,0.1,0.18,0.15,0.26l0.01,0.02c0,0,0,0.01,0,0.01c0.03,0.14,0.06,0.28,0.11,0.41c0,0.01,0,0.02,0.01,0.03
	c0,0.08,0.01,0.15,0.01,0.23l0,0.02C151.16,138.69,150.6,138.69,150.13,138.92L150.13,138.92z"/>
<path class="st2" d="M150.18,138.9L150.18,138.9C150.18,138.91,150.18,138.9,150.18,138.9z"/>
<polygon class="st2" points="150.18,138.9 150.18,138.9 150.18,138.9 "/>
<path class="st2" d="M150.18,138.9C150.18,138.9,150.18,138.9,150.18,138.9L150.18,138.9z"/>
<path class="st2" d="M150.18,138.9L150.18,138.9L150.18,138.9z"/>
<polygon class="st2" points="212.18,152.9 212.18,152.9 212.18,152.9 "/>
<path class="st2" d="M217.37,108.15c-1.43-2.54-4.49-3.67-7.22-2.67c-1.33,0.49-2.41,1.49-2.99,2.78c-0.06,0.14-0.09,0.28-0.14,0.42
	c-0.07,0.11-0.14,0.2-0.2,0.31c-1.48,2.94-0.29,6.52,2.65,8c2.18,1.1,4.82,0.75,6.64-0.88
	C218.35,114.08,218.88,110.76,217.37,108.15z M213.62,110.69C213.63,110.77,213.62,110.84,213.62,110.69z M213.23,109.82
	C213.22,109.81,213.22,109.81,213.23,109.82z M211.55,110.5C211.53,110.47,211.53,110.46,211.55,110.5z M211.95,110.84
	C212.04,110.87,212.01,110.87,211.95,110.84z M212.13,110.92l0.04-0.02c-0.01,0-0.02,0-0.03-0.01l0,0l0.03,0l0.01,0l-0.02,0
	c0.02,0,0.02,0,0.02,0c0.18-0.08,0.06-0.04-0.05-0.01l-0.01,0c-0.06-0.03-0.13-0.06-0.21-0.07c-0.01,0-0.01-0.01-0.02-0.01
	c-0.06-0.04-0.35-0.27-0.08-0.03c-0.06-0.05-0.12-0.1-0.17-0.16c-0.03-0.03-0.06-0.07-0.09-0.11c-0.04-0.06-0.07-0.12-0.1-0.18
	l-0.01-0.03c0-0.03-0.01-0.04-0.01-0.06c0-0.02,0-0.04,0.01-0.05c0.02-0.05,0.03-0.11,0.04-0.17l0.01-0.01
	c0.04-0.06,0.08-0.13,0.12-0.19c-0.22,0.33,0.08-0.04,0.11-0.08c0-0.01,0,0,0-0.01c0.01,0,0.01,0,0.02-0.01
	c0.07-0.04,0.13-0.08,0.2-0.12c0.08-0.05,0.4-0.14,0.07-0.04c0.08-0.02,0.15-0.05,0.22-0.07c0.01,0,0.13-0.02,0.19-0.03
	c0.05,0,0.1,0,0.11,0c0.02,0,0.05,0,0.07,0c-0.06,0.01,0.19,0.06,0.26,0.07c0.01,0.01,0.02,0.01,0.03,0.02
	c0.06,0.04,0.14,0.08,0.2,0.13c-0.29-0.19,0,0.01,0.06,0.07c0.03,0.03,0.06,0.07,0.09,0.1c0.03,0.03,0.05,0.07,0.08,0.11
	c0.05,0.09,0.1,0.18,0.15,0.26l0.01,0.02c0,0,0,0.01,0,0.01c0.03,0.14,0.06,0.28,0.11,0.41c0,0.01,0,0.02,0.01,0.03
	c0,0.08,0.01,0.15,0.01,0.23l0,0.02C213.16,110.69,212.6,110.69,212.13,110.92L212.13,110.92z"/>
<polygon class="st2" points="212.17,152.9 212.17,152.91 212.18,152.9 "/>
<path class="st2" d="M212.18,152.9L212.18,152.9L212.18,152.9z"/>
<path class="st2" d="M212.18,152.9L212.18,152.9C212.18,152.91,212.18,152.9,212.18,152.9z"/>
<path class="st2" d="M212.18,152.9C212.18,152.9,212.18,152.9,212.18,152.9L212.18,152.9z"/>
<path class="st2" d="M280.37,185.15c-1.43-2.54-4.49-3.67-7.22-2.67c-1.33,0.49-2.41,1.49-2.99,2.78c-0.06,0.14-0.09,0.28-0.14,0.42
	c-0.07,0.11-0.14,0.2-0.2,0.31c-1.48,2.94-0.29,6.52,2.65,8c2.18,1.1,4.82,0.75,6.64-0.88
	C281.35,191.08,281.88,187.76,280.37,185.15z M276.62,187.69C276.63,187.77,276.62,187.84,276.62,187.69z M276.23,186.82
	C276.22,186.81,276.22,186.81,276.23,186.82z M274.55,187.5C274.53,187.47,274.53,187.46,274.55,187.5z M274.95,187.84
	C275.04,187.87,275.01,187.87,274.95,187.84z M275.13,187.92l0.04-0.02c-0.01,0-0.02,0-0.03-0.01l0,0l0.03,0l0.01,0l-0.02,0
	c0.02,0,0.02,0,0.02,0c0.18-0.08,0.06-0.04-0.05-0.01l-0.01,0c-0.06-0.03-0.13-0.06-0.21-0.07c-0.01,0-0.01-0.01-0.02-0.01
	c-0.06-0.04-0.35-0.27-0.08-0.03c-0.06-0.05-0.12-0.1-0.17-0.16c-0.03-0.03-0.06-0.07-0.09-0.11c-0.04-0.06-0.07-0.12-0.1-0.18
	l-0.01-0.03c0-0.03-0.01-0.04-0.01-0.06c0-0.02,0-0.04,0.01-0.05c0.02-0.05,0.03-0.11,0.04-0.17l0.01-0.01
	c0.04-0.06,0.08-0.13,0.12-0.19c-0.22,0.33,0.08-0.04,0.11-0.08c0-0.01,0,0,0-0.01c0.01,0,0.01,0,0.02-0.01
	c0.07-0.04,0.13-0.08,0.2-0.12c0.08-0.05,0.4-0.14,0.07-0.04c0.08-0.02,0.15-0.05,0.22-0.07c0.01,0,0.13-0.02,0.19-0.03
	c0.05,0,0.1,0,0.11,0c0.02,0,0.05,0,0.07,0c-0.06,0.01,0.19,0.06,0.26,0.07c0.01,0.01,0.02,0.01,0.03,0.02
	c0.06,0.04,0.14,0.08,0.2,0.13c-0.29-0.19,0,0.01,0.06,0.07c0.03,0.03,0.06,0.07,0.09,0.1c0.03,0.03,0.05,0.07,0.08,0.11
	c0.05,0.09,0.1,0.18,0.15,0.26l0.01,0.02c0,0,0,0.01,0,0.01c0.03,0.14,0.06,0.28,0.11,0.41c0,0.01,0,0.02,0.01,0.03
	c0,0.08,0.01,0.15,0.01,0.23l0,0.02C276.16,187.69,275.6,187.69,275.13,187.92L275.13,187.92z"/>
<polygon class="st2" points="275.17,121.9 275.17,121.91 275.17,121.9 "/>
<path class="st2" d="M275.18,121.9L275.18,121.9L275.18,121.9z"/>
<path class="st2" d="M275.18,121.9L275.18,121.9C275.18,121.91,275.18,121.9,275.18,121.9z"/>
<path class="st2" d="M275.18,121.9C275.18,121.9,275.18,121.9,275.18,121.9L275.18,121.9z"/>
<polygon class="st2" points="275.18,121.9 275.18,121.9 275.18,121.9 "/>
<path class="st2" d="M334.18,141.9L334.18,141.9L334.18,141.9z"/>
<path class="st2" d="M339.37,139.15c-1.43-2.54-4.49-3.67-7.22-2.67c-1.33,0.49-2.41,1.49-2.99,2.78c-0.06,0.14-0.09,0.28-0.14,0.42
	c-0.07,0.11-0.14,0.2-0.2,0.31c-1.48,2.94-0.29,6.52,2.65,8c2.18,1.1,4.82,0.75,6.64-0.88
	C340.35,145.08,340.88,141.76,339.37,139.15z M335.62,141.69C335.63,141.77,335.62,141.84,335.62,141.69z M335.23,140.82
	C335.22,140.81,335.22,140.81,335.23,140.82z M333.55,141.5C333.53,141.47,333.53,141.46,333.55,141.5z M333.95,141.84
	C334.04,141.87,334.01,141.87,333.95,141.84z M334.13,141.92l0.04-0.02c-0.01,0-0.02,0-0.03-0.01l0,0l0.03,0l0.01,0l-0.02,0
	c0.02,0,0.02,0,0.02,0c0.18-0.08,0.06-0.04-0.05-0.01l-0.01,0c-0.06-0.03-0.13-0.06-0.21-0.07c-0.01,0-0.01-0.01-0.02-0.01
	c-0.06-0.04-0.35-0.27-0.08-0.03c-0.06-0.05-0.12-0.1-0.17-0.16c-0.03-0.03-0.06-0.07-0.09-0.11c-0.04-0.06-0.07-0.12-0.1-0.18
	l-0.01-0.03c0-0.03-0.01-0.04-0.01-0.06c0-0.02,0-0.04,0.01-0.05c0.02-0.05,0.03-0.11,0.04-0.17l0.01-0.01
	c0.04-0.06,0.08-0.13,0.12-0.19c-0.22,0.33,0.08-0.04,0.11-0.08c0-0.01,0,0,0-0.01c0.01,0,0.01,0,0.02-0.01
	c0.07-0.04,0.13-0.08,0.2-0.12c0.08-0.05,0.4-0.14,0.07-0.04c0.08-0.02,0.15-0.05,0.22-0.07c0.01,0,0.13-0.02,0.19-0.03
	c0.05,0,0.1,0,0.11,0c0.02,0,0.05,0,0.07,0c-0.06,0.01,0.19,0.06,0.26,0.07c0.01,0.01,0.02,0.01,0.03,0.02
	c0.06,0.04,0.14,0.08,0.2,0.13c-0.29-0.19,0,0.01,0.06,0.07c0.03,0.03,0.06,0.07,0.09,0.1c0.03,0.03,0.05,0.07,0.08,0.11
	c0.05,0.09,0.1,0.18,0.15,0.26l0.01,0.02c0,0,0,0.01,0,0.01c0.03,0.14,0.06,0.28,0.11,0.41c0,0.01,0,0.02,0.01,0.03
	c0,0.08,0.01,0.15,0.01,0.23l0,0.02C335.16,141.69,334.6,141.69,334.13,141.92L334.13,141.92z"/>
<polygon class="st2" points="334.17,141.9 334.17,141.91 334.17,141.9 "/>
<polygon class="st2" points="334.18,141.9 334.18,141.9 334.18,141.9 "/>
<path class="st2" d="M334.18,141.9C334.18,141.9,334.18,141.9,334.18,141.9L334.18,141.9z"/>
<path class="st2" d="M334.18,141.9L334.18,141.9C334.18,141.91,334.18,141.9,334.18,141.9z"/>
<path class="st3" d="M318,187.73l-46.5,2.58c-0.57,0.03-1.05-0.4-1.08-0.97c-0.03-0.52,0.34-0.98,0.86-1.07l47.52-7.73L318,187.73z"
	/>
<path class="st4" d="M377.09,291.25l17.52-29.48l12.95,6.12c0,0-22.32,27.87-23.03,28.67c0.83,3.69-1.49,7.36-5.19,8.19
	c-3.69,0.83-7.36-1.49-8.19-5.19c-0.83-3.69,1.49-7.36,5.19-8.19C376.59,291.32,376.84,291.28,377.09,291.25L377.09,291.25z"/>
<path class="st5" d="M384.38,222.77l28.39,14.81c7.04,5.07,8.64,14.9,3.57,21.94c-0.28,0.39-0.59,0.77-0.91,1.14l-19.57,22.45
	l-8.53-11.55l6.57-13.74l-12.72-3.36L384.38,222.77z"/>
<path class="st4" d="M303.49,188.21l-3.2,34.14l-14.32,0.02c0,0,8.22-34.75,8.52-35.78c-2.33-2.98-1.81-7.29,1.17-9.63
	s7.29-1.81,9.63,1.17s1.81,7.29-1.17,9.63C303.91,187.94,303.7,188.08,303.49,188.21L303.49,188.21z"/>
<path class="st5" d="M331.99,258.04l-32.96-6.05c-13.88-1.67-19.58-10.8-17.07-19.71l8.06-28.67l12.65,6.78l-0.05,15.23l17.71-2.42
	L331.99,258.04z"/>
<polygon class="st4" points="318.5,493.99 309.44,493.99 305.12,459.03 318.5,459.03 "/>
<path class="st6" d="M320.63,497.62l-25.81,10.53l-0.13-0.33c-2.26-5.55,0.4-11.88,5.94-14.14l0,0l3.25-5.5l10.26-0.01l2.25-0.92
	L320.63,497.62z"/>
<polygon class="st4" points="382.64,493.99 391.7,493.99 396.01,459.03 382.63,459.03 "/>
<path class="st6" d="M382.32,503.45l27.87,0v-0.35c0-5.99-4.86-10.85-10.85-10.85h0l-5.09-3.86l-9.5,3.86l-2.43,0L382.32,503.45z"/>
<path class="st6" d="M304.73,433.34c0.13-1.99,1.2-13.03,1.2-13.03l2.55-23.4l4.49-62.02l4.01-16.3l19.83,7.72l16.09-7.71
	l19.12,6.11l14.89,5.58c0,0,0.03,2.39,0.14,5.28c0.15,3.78,0.42,8.41,1.06,9.62c1.06,2.13,0.8,13.56,0.8,13.56s1.06,23.25,2.39,25.8
	s1.6,7.86,1.2,8.92s1.33,28.99,1.33,28.99s4.45,49.41,1.66,56.86s-13.34,2.57-13.34,2.57s0.51-1.99-2.55-2.93s-12.38-71-12.38-71
	s-1.73-14.37-3.33-18.48s-3.06-15.69-3.06-15.69s-9.84-19.15-9.97-23.4c0,0-1.29-3.98-2.5,0.4s-4.81,14.89-4.81,14.89l-3.5,12.9
	l-4.12,19.27l-2.66,16.23c0,0-3.99,21.54-4.63,22.47s0,20.61,0,20.61s-3.08,16.76-7.44,19.68s-15.91,0.05-15.91,0.05
	S304.59,435.33,304.73,433.34z"/>
<path class="st5" d="M319.55,266.13l-2.53,32.82l-3.81,3.94c-1.41,1.46-1.37,3.78,0.09,5.19c0.03,0.03,0.07,0.06,0.1,0.1l0,0
	l-2.1,3.6l-0.74,11.33c-0.79,3.31,1.24,6.63,4.55,7.43c0.38,0.09,0.76,0.15,1.15,0.16l65.63,3.08c3.4,0.16,6.28-2.47,6.44-5.86
	c0.02-0.37,0-0.74-0.05-1.1l-5.58-42.01v-3.14l-2.5-6.07l1.28-20.32l2.99-32.26l-17.36-4.48l-9.41-6.48l-16.35,0.26l-9.92,8.15
	l-13.23,2.07l-10.01,1.99l-1.27,2.77l2.55-0.55l9.24,36.04L319.55,266.13z"/>
<circle class="st4" cx="349.16" cy="188.38" r="19.27"/>
<path class="st6" d="M344.51,206.4l13.92-0.71c1.78-0.09,3.73-0.25,5.03-1.48c0.7-0.76,1.23-1.65,1.58-2.62
	c1.29-2.99,2.57-5.98,3.83-8.98c1.73-4.15,3.44-8.54,3-13.02c-0.1-2.05-0.96-3.98-2.41-5.43c-1.52-1.44-3.81-1.67-5.59-0.57
	c-0.43-2.87-2.16-5.38-4.69-6.81c-2.52-1.39-5.4-2-8.26-1.75c-4.16,0.27-8.13,1.83-11.36,4.48c-0.91,0.84-1.88,1.6-2.9,2.3
	c-1.04,0.69-2.32,0.93-3.54,0.65c-1.23-0.33-2.04-1.52-1.88-2.79c-2.03,1.52-2.58,4.33-1.26,6.5c-1.47,0.62-3.15,0.42-4.44-0.53
	c-2.69,1.33-3.78,4.59-2.45,7.28c1.33,2.69,4.59,3.78,7.28,2.45c0.31-0.15,0.6-0.33,0.87-0.54c0.84,1.18,0.53,2.79,0.42,4.24
	s0.28,3.25,1.68,3.65c1.89,0.54,3.42-2,5.39-1.98c0.98,0.08,1.86,0.65,2.34,1.51c0.46,0.85,0.78,1.78,0.94,2.74l2.52,11.32"/>
<path class="st2" d="M887.26,379.64c0-2.98-1-5.4-2.23-5.41H549.68c-1.24,0.01-2.23,2.43-2.24,5.41v122.81
	c0,0.57-0.44,1.05-1.01,1.11c-0.9,0.09-1.8,0.17-2.7,0.24c-0.02,0-0.04,0.01-0.07,0.01c-0.49,0.04-0.98,0.08-1.47,0.12h-0.01
	c-0.25-0.47-0.5-0.94-0.75-1.41c-0.08-0.16-0.13-0.34-0.13-0.52V372.62c0-0.82,0.03-1.65,0.09-2.47c0.08-1.12,0.22-2.24,0.42-3.35
	c0.94-5.17,3.07-8.67,5.48-8.68h340.08c0.35,0,0.7,0.08,1.02,0.22c0.47,0.21,0.9,0.51,1.26,0.89c0.49,0.51,0.91,1.08,1.24,1.7
	c1.39,2.76,2.18,5.78,2.34,8.87c0,0.03,0.01,0.07,0.01,0.1c0.08,0.9,0.12,1.82,0.11,2.74l0.08,11.93l0.05,7.11l0.15,22.32l0.06,7.93
	l0.24,81.37l0,0c0,0.61-0.5,1.11-1.11,1.11h-4.47c-0.61,0-1.11-0.5-1.11-1.11c0,0,0,0,0,0L887.26,379.64z"/>
<path class="st7" d="M796.13,302.3H760c-1.06,0-1.93,0.87-1.92,1.93v57.08h39.99v-57.08C798.06,303.16,797.2,302.3,796.13,302.3
	C796.13,302.3,796.13,302.3,796.13,302.3z M778.19,334.73c-2.35-0.01-4.26-1.91-4.27-4.27v-6.58c0-2.36,1.91-4.27,4.27-4.27
	c2.36,0,4.27,1.91,4.27,4.27v6.58C782.44,332.82,780.54,334.72,778.19,334.73z"/>
<path class="st3" d="M757.95,359.49v5.51c0,0.59,0.48,1.08,1.08,1.08h38.08c0.59,0,1.07-0.48,1.08-1.08v-5.51H757.95z"/>
<path class="st2" d="M855.97,213.22H701.51c-2.76,0-5,2.24-5.01,5.01v104.23c0,2.76,2.24,5,5.01,5.01h154.46
	c2.76,0,5-2.24,5.01-5.01V218.22C860.97,215.46,858.73,213.22,855.97,213.22z"/>
<path class="st8" d="M854.68,216.83H702.8c-1.48,0-2.68,1.2-2.68,2.68v101.65c0,1.48,1.2,2.67,2.68,2.68h151.88
	c1.48,0,2.67-1.2,2.68-2.68V219.52C857.36,218.04,856.16,216.84,854.68,216.83z"/>
<path class="st7" d="M825.1,367.99h-90.36c-0.92,0-1.66-0.74-1.66-1.66c0-0.12,0.01-0.23,0.04-0.34l1.4-6.66
	c0.16-0.77,0.84-1.32,1.63-1.32h87.56c0.78,0,1.46,0.55,1.63,1.32l1.4,6.66c0.19,0.9-0.39,1.78-1.28,1.97
	C825.32,367.97,825.21,367.99,825.1,367.99L825.1,367.99z"/>
<path class="st2" d="M737.27,359.2h1.81c0.27,0,0.49,0.22,0.49,0.49v0.69c0,0.27-0.22,0.49-0.49,0.49h-1.81
	c-0.27,0-0.49-0.22-0.49-0.49v-0.69C736.78,359.42,737,359.2,737.27,359.2z"/>
<path class="st2" d="M742.83,359.2h1.81c0.27,0,0.49,0.22,0.49,0.49v0.69c0,0.27-0.22,0.49-0.49,0.49h-1.81
	c-0.27,0-0.49-0.22-0.49-0.49v-0.69C742.34,359.42,742.56,359.2,742.83,359.2z"/>
<path class="st2" d="M748.4,359.2h1.81c0.27,0,0.49,0.22,0.49,0.49v0.69c0,0.27-0.22,0.49-0.49,0.49h-1.81
	c-0.27,0-0.49-0.22-0.49-0.49v-0.69C747.91,359.42,748.13,359.2,748.4,359.2z"/>
<path class="st2" d="M753.97,359.2h1.81c0.27,0,0.49,0.22,0.49,0.49v0.69c0,0.27-0.22,0.49-0.49,0.49h-1.81
	c-0.27,0-0.49-0.22-0.49-0.49v-0.69C753.48,359.42,753.7,359.2,753.97,359.2z"/>
<path class="st2" d="M759.53,359.2h1.81c0.27,0,0.49,0.22,0.49,0.49v0.69c0,0.27-0.22,0.49-0.49,0.49h-1.81
	c-0.27,0-0.49-0.22-0.49-0.49v-0.69C759.04,359.42,759.26,359.2,759.53,359.2z"/>
<path class="st2" d="M765.1,359.2h1.81c0.27,0,0.49,0.22,0.49,0.49v0.69c0,0.27-0.22,0.49-0.49,0.49h-1.81
	c-0.27,0-0.49-0.22-0.49-0.49v-0.69C764.61,359.42,764.83,359.2,765.1,359.2z"/>
<path class="st2" d="M770.66,359.2h1.81c0.27,0,0.49,0.22,0.49,0.49v0.69c0,0.27-0.22,0.49-0.49,0.49h-1.81
	c-0.27,0-0.49-0.22-0.49-0.49v-0.69C770.17,359.42,770.39,359.2,770.66,359.2z"/>
<path class="st2" d="M776.23,359.2h1.81c0.27,0,0.49,0.22,0.49,0.49v0.69c0,0.27-0.22,0.49-0.49,0.49h-1.81
	c-0.27,0-0.49-0.22-0.49-0.49v-0.69C775.74,359.42,775.96,359.2,776.23,359.2z"/>
<path class="st2" d="M781.79,359.2h1.81c0.27,0,0.49,0.22,0.49,0.49v0.69c0,0.27-0.22,0.49-0.49,0.49h-1.81
	c-0.27,0-0.49-0.22-0.49-0.49v-0.69C781.31,359.42,781.53,359.2,781.79,359.2z"/>
<path class="st2" d="M787.36,359.2h1.81c0.27,0,0.49,0.22,0.49,0.49v0.69c0,0.27-0.22,0.49-0.49,0.49h-1.81
	c-0.27,0-0.49-0.22-0.49-0.49v-0.69C786.87,359.42,787.09,359.2,787.36,359.2z"/>
<path class="st2" d="M792.93,359.2h1.81c0.27,0,0.49,0.22,0.49,0.49v0.69c0,0.27-0.22,0.49-0.49,0.49h-1.81
	c-0.27,0-0.49-0.22-0.49-0.49v-0.69C792.44,359.42,792.66,359.2,792.93,359.2z"/>
<path class="st2" d="M798.49,359.2h1.81c0.27,0,0.49,0.22,0.49,0.49v0.69c0,0.27-0.22,0.49-0.49,0.49h-1.81
	c-0.27,0-0.49-0.22-0.49-0.49v-0.69C798,359.42,798.22,359.2,798.49,359.2z"/>
<path class="st2" d="M804.06,359.2h1.81c0.27,0,0.49,0.22,0.49,0.49v0.69c0,0.27-0.22,0.49-0.49,0.49h-1.81
	c-0.27,0-0.49-0.22-0.49-0.49v-0.69C803.57,359.42,803.79,359.2,804.06,359.2z"/>
<path class="st2" d="M809.62,359.2h1.81c0.27,0,0.49,0.22,0.49,0.49v0.69c0,0.27-0.22,0.49-0.49,0.49h-1.81
	c-0.27,0-0.49-0.22-0.49-0.49v-0.69C809.14,359.42,809.36,359.2,809.62,359.2z"/>
<path class="st2" d="M815.19,359.2H817c0.27,0,0.49,0.22,0.49,0.49v0.69c0,0.27-0.22,0.49-0.49,0.49h-1.81
	c-0.27,0-0.49-0.22-0.49-0.49v-0.69C814.7,359.42,814.92,359.2,815.19,359.2z"/>
<path class="st2" d="M820.76,359.2h1.81c0.27,0,0.49,0.22,0.49,0.49v0.69c0,0.27-0.22,0.49-0.49,0.49h-1.81
	c-0.27,0-0.49-0.22-0.49-0.49v-0.69C820.27,359.42,820.49,359.2,820.76,359.2z"/>
<path class="st2" d="M737.2,361.98h1.81c0.27,0,0.49,0.22,0.49,0.49v0.69c0,0.27-0.22,0.49-0.49,0.49h-1.81
	c-0.27,0-0.49-0.22-0.49-0.49v-0.69C736.71,362.2,736.93,361.98,737.2,361.98z"/>
<path class="st2" d="M742.77,361.98h1.81c0.27,0,0.49,0.22,0.49,0.49v0.69c0,0.27-0.22,0.49-0.49,0.49h-1.81
	c-0.27,0-0.49-0.22-0.49-0.49v-0.69C742.28,362.2,742.5,361.98,742.77,361.98z"/>
<path class="st2" d="M748.33,361.98h1.81c0.27,0,0.49,0.22,0.49,0.49v0.69c0,0.27-0.22,0.49-0.49,0.49h-1.81
	c-0.27,0-0.49-0.22-0.49-0.49v-0.69C747.85,362.2,748.06,361.98,748.33,361.98z"/>
<path class="st2" d="M753.9,361.98h1.81c0.27,0,0.49,0.22,0.49,0.49v0.69c0,0.27-0.22,0.49-0.49,0.49h-1.81
	c-0.27,0-0.49-0.22-0.49-0.49v-0.69C753.41,362.2,753.63,361.98,753.9,361.98z"/>
<path class="st2" d="M759.47,361.98h1.81c0.27,0,0.49,0.22,0.49,0.49v0.69c0,0.27-0.22,0.49-0.49,0.49h-1.81
	c-0.27,0-0.49-0.22-0.49-0.49v-0.69C758.98,362.2,759.2,361.98,759.47,361.98z"/>
<path class="st2" d="M765.03,361.98h1.81c0.27,0,0.49,0.22,0.49,0.49v0.69c0,0.27-0.22,0.49-0.49,0.49h-1.81
	c-0.27,0-0.49-0.22-0.49-0.49v-0.69C764.54,362.2,764.76,361.98,765.03,361.98z"/>
<path class="st2" d="M770.6,361.98h1.81c0.27,0,0.49,0.22,0.49,0.49v0.69c0,0.27-0.22,0.49-0.49,0.49h-1.81
	c-0.27,0-0.49-0.22-0.49-0.49v-0.69C770.11,362.2,770.33,361.98,770.6,361.98z"/>
<path class="st2" d="M776.16,361.98h1.81c0.27,0,0.49,0.22,0.49,0.49v0.69c0,0.27-0.22,0.49-0.49,0.49h-1.81
	c-0.27,0-0.49-0.22-0.49-0.49v-0.69C775.67,362.2,775.89,361.98,776.16,361.98z"/>
<path class="st2" d="M781.73,361.98h1.81c0.27,0,0.49,0.22,0.49,0.49v0.69c0,0.27-0.22,0.49-0.49,0.49h-1.81
	c-0.27,0-0.49-0.22-0.49-0.49v-0.69C781.24,362.2,781.46,361.98,781.73,361.98z"/>
<path class="st2" d="M787.3,361.98h1.81c0.27,0,0.49,0.22,0.49,0.49v0.69c0,0.27-0.22,0.49-0.49,0.49h-1.81
	c-0.27,0-0.49-0.22-0.49-0.49v-0.69C786.81,362.2,787.03,361.98,787.3,361.98z"/>
<path class="st2" d="M792.86,361.98h1.81c0.27,0,0.49,0.22,0.49,0.49v0.69c0,0.27-0.22,0.49-0.49,0.49h-1.81
	c-0.27,0-0.49-0.22-0.49-0.49v-0.69C792.37,362.2,792.59,361.98,792.86,361.98z"/>
<path class="st2" d="M798.43,361.98h1.81c0.27,0,0.49,0.22,0.49,0.49v0.69c0,0.27-0.22,0.49-0.49,0.49h-1.81
	c-0.27,0-0.49-0.22-0.49-0.49v-0.69C797.94,362.2,798.16,361.98,798.43,361.98z"/>
<path class="st2" d="M803.99,361.98h1.81c0.27,0,0.49,0.22,0.49,0.49v0.69c0,0.27-0.22,0.49-0.49,0.49h-1.81
	c-0.27,0-0.49-0.22-0.49-0.49v-0.69C803.5,362.2,803.72,361.98,803.99,361.98z"/>
<path class="st2" d="M809.56,361.98h1.81c0.27,0,0.49,0.22,0.49,0.49v0.69c0,0.27-0.22,0.49-0.49,0.49h-1.81
	c-0.27,0-0.49-0.22-0.49-0.49v-0.69C809.07,362.2,809.29,361.98,809.56,361.98z"/>
<path class="st2" d="M815.13,361.98h1.81c0.27,0,0.49,0.22,0.49,0.49v0.69c0,0.27-0.22,0.49-0.49,0.49h-1.81
	c-0.27,0-0.49-0.22-0.49-0.49v-0.69C814.64,362.2,814.86,361.98,815.13,361.98z"/>
<path class="st2" d="M820.69,361.98h1.81c0.27,0,0.49,0.22,0.49,0.49v0.69c0,0.27-0.22,0.49-0.49,0.49h-1.81
	c-0.27,0-0.49-0.22-0.49-0.49v-0.69C820.2,362.2,820.42,361.98,820.69,361.98z"/>
<path class="st2" d="M763.92,365.32h21.29c0.27,0,0.49,0.22,0.49,0.49v0.69c0,0.27-0.22,0.49-0.49,0.49h-21.29
	c-0.27,0-0.49-0.22-0.49-0.49v-0.69C763.43,365.54,763.65,365.32,763.92,365.32z"/>
<path class="st9" d="M847.04,230.84H704.93c-0.31-0.01-0.56-0.27-0.55-0.58c0.01-0.3,0.25-0.55,0.55-0.55h142.11
	c0.31,0.01,0.56,0.27,0.55,0.58C847.59,230.59,847.35,230.83,847.04,230.84z"/>
<ellipse class="st7" cx="714.61" cy="223.44" rx="3.31" ry="3.39"/>
<ellipse class="st7" cx="726.05" cy="223.44" rx="3.31" ry="3.39"/>
<ellipse class="st7" cx="737.49" cy="223.44" rx="3.31" ry="3.39"/>
<path class="st7" d="M840.16,220.89h-8.13c-0.34,0.01-0.61,0.29-0.6,0.63c0.01,0.33,0.27,0.6,0.6,0.6h8.13
	c0.34-0.01,0.61-0.29,0.6-0.63C840.75,221.16,840.49,220.9,840.16,220.89L840.16,220.89z"/>
<path class="st7" d="M840.16,223.2h-8.13c-0.34,0.01-0.61,0.29-0.6,0.63c0.01,0.33,0.27,0.6,0.6,0.6h8.13
	c0.34-0.01,0.61-0.29,0.6-0.63C840.75,223.47,840.49,223.21,840.16,223.2L840.16,223.2z"/>
<path class="st7" d="M840.16,225.51h-8.13c-0.34,0.01-0.61,0.29-0.6,0.63c0.01,0.33,0.27,0.6,0.6,0.6h8.13
	c0.34-0.01,0.61-0.29,0.6-0.63C840.75,225.78,840.49,225.51,840.16,225.51L840.16,225.51z"/>
<path class="st5" d="M769.7,261.63h17.76c1.33,0,2.42,1.08,2.42,2.42l0,0c0,1.33-1.08,2.42-2.42,2.42H769.7
	c-1.33,0-2.42-1.08-2.42-2.42l0,0C767.29,262.71,768.37,261.63,769.7,261.63z"/>
<path class="st2" d="M758.23,271.29h40.7c1.33,0,2.42,1.08,2.42,2.42l0,0c0,1.33-1.08,2.42-2.42,2.42h-40.7
	c-1.33,0-2.42-1.08-2.42-2.42l0,0C755.82,272.37,756.9,271.29,758.23,271.29z"/>
<path class="st2" d="M758.23,280.95h40.7c1.33,0,2.42,1.08,2.42,2.42l0,0c0,1.33-1.08,2.42-2.42,2.42h-40.7
	c-1.33,0-2.42-1.08-2.42-2.42l0,0C755.82,282.03,756.9,280.95,758.23,280.95z"/>
<polygon class="st10" points="524.73,431.45 516.54,427.53 527.78,393.31 539.87,399.09 "/>
<path class="st10" d="M579.61,425.93c-0.6,0.37-1.19,0.74-1.79,1.11c-1.2,0.73-2.41,1.46-3.61,2.16c-0.61,0.35-1.22,0.71-1.83,1.06
	v0.02l-0.04,0.01l-0.01,0.01l-0.93,0.23l-1.33-3.51l-0.61-1.62l-0.87-2.29l-1.59-4.19l-8.36-22.07l12.99-3.21l0.49,1.99h0.01
	l0.24,0.99l4.54,18.41l0.93,3.76l0.03,0.11l0.56,2.25l0.48,1.95l0.54,2.18L579.61,425.93z"/>
<path class="st6" d="M657.12,348.43c-0.82,1.32-1.67,2.64-2.51,3.94c-1.58,2.43-3.19,4.82-4.85,7.18c0,0.01-0.01,0.01-0.01,0.01
	c-0.97,0.9-2.04,1.68-3.19,2.33c-0.05,0.04-0.1,0.06-0.15,0.09c-0.85,0.47-1.75,0.83-2.68,1.08c-0.34,0.08-0.68,0.17-1.02,0.25
	c-1.21,0.29-2.42,0.54-3.61,0.75c-2.13,0.38-4.23,0.65-6.33,0.82c-0.17,0.02-0.34,0.03-0.51,0.04c-8.6,0.63-16.98-0.38-25.72-2.05
	c-4.32-0.82-8.72-1.8-13.29-2.81c-1.49-0.34-2.99-0.67-4.5-1c-0.11-0.02-0.23-0.05-0.35-0.08c-2.16-0.47-4.37-0.94-6.62-1.41
	c-2.84-0.58-5.77-1.15-8.81-1.68l0.22,4.29c0.18,3.3,0.87,6.55,2.03,9.64c1.3,3.8,2.33,6.81,0.16,13.07l-1.05,3.03
	c1.1,3.05,0.71,6.44-1.06,9.16l-0.21,0.32l8.72,22.07l0.57,1.43h-4.47l-5.5,0.01h-9.31l-13.44-26.96l-0.64-1.29v-0.07l1.39-51.81
	c0.02-0.46,0.05-0.92,0.11-1.38c0.49-4.2,2.65-8.02,6-10.61c3.2-2.5,7.27-3.61,11.3-3.09l4.6,0.6l9.4,1.21l6.62,0.86l0.13,0.02
	l19.52,2.53l1.4-5.71l0.26-0.1l8.22-3.01l28.43-10.42l0.07-0.02l1.87-0.69l0.22,0.36c0.07,0.11,0.13,0.22,0.19,0.32
	c1.85,3.31,3.35,6.81,4.49,10.43c1.91,5.91,3.49,11.93,4.72,18.02c0.05,0.26,0.1,0.51,0.14,0.72l0.02,0.07
	c0.02,0.1,0.03,0.17,0.04,0.19C658.69,342.22,658.34,345.47,657.12,348.43z"/>
<path class="st6" d="M658.32,329.34c-0.09-0.38-0.2-0.78-0.32-1.15c-0.95-2.87-2.07-5.68-3.33-8.43c-1.42-3.13-3.12-6.48-5.15-10.1
	c-0.98-1.76-2.03-3.58-3.16-5.48c-0.57-0.95-1.15-1.92-1.76-2.9c-0.02-0.05-0.05-0.09-0.08-0.13l-0.17-0.29l-28.13,3.76l-10.47,1.4
	l-0.63,5.22l-0.15,1.29c-0.01,0-0.01,0,0,0.01l-0.42,3.52v0.01l-0.56,4.65l-0.05-0.01l-15.54-2.01l-16.02-2.07l-8.6-1.11
	c-4.03-0.52-8.1,0.59-11.3,3.09c-3.34,2.59-5.5,6.41-5.99,10.61c-0.05,0.42-0.09,0.85-0.11,1.28l-8.12,19.24
	c-4.86,11.5-7.95,23.68-9.18,36.1l-5.95,19.03l0.85,0.08l12.62,1.17l3.33,0.31l7.34-10.71c0.84-1.22,1.63-2.48,2.37-3.76
	c1.22-2.1,2.3-4.28,3.24-6.52l15.87-37.76c1.23,0.21,2.44,0.41,3.64,0.6c5.56,0.9,10.9,1.64,16.02,2.21
	c16.64,1.86,31.05,2,43.87,0.43c3.6-0.44,7.08-1.02,10.44-1.73c1.23-0.26,2.45-0.54,3.65-0.84c0.28-0.07,0.56-0.13,0.84-0.2
	c5.05-1.3,9.09-5.08,10.73-10.03C658.89,335.28,659.03,332.24,658.32,329.34z"/>
<path class="st6" d="M527.34,425.86l-8.86-4.25l-1.39-0.67l-2.22,5.45l-15.49,3.41c-1.98,0.43-3.24,2.39-2.8,4.38
	c0.26,1.18,1.08,2.16,2.2,2.62l15.13,6.18l4.8-4.32l-1.18,5.8l5.7,2.33l6.25-19.89L527.34,425.86z"/>
<polygon class="st6" points="581.77,417.47 582.34,418.9 581.77,418.9 "/>
<path class="st6" d="M578.69,419.21l-9.28,3.22l-1.46,0.5l2.26,5.43l-8.61,13.32c-1.1,1.7-0.62,3.98,1.09,5.08
	c1.02,0.66,2.29,0.77,3.41,0.31l15.1-6.26l0.37-6.45l3.25,4.95l5.69-2.36l-9.55-18.53L578.69,419.21z"/>
<path class="st10" d="M522.36,220.25c1.66,3.24,5.64,4.52,8.87,2.85c0.35-0.18,0.67-0.38,0.98-0.62l19.52,12.96l0.04-12.17
	l-18.54-10.44c-2.41-2.76-6.59-3.05-9.35-0.64C521.57,214.2,520.94,217.53,522.36,220.25L522.36,220.25z"/>
<path class="st7" d="M536.94,225.88l9.11-10.36l37.07,22.01l49.15-4.5c9.14-0.84,17.23,5.89,18.06,15.03c0.09,1.01,0.09,2.03,0,3.05
	l0,0c-0.86,9.13-8.94,15.85-18.08,15.02L576.9,261L536.94,225.88z"/>
<path class="st7" d="M651.01,226.04l-0.09-0.11l0,0c-14.12-1.39-27.75,5.66-34.75,18.01l-4.17,7.35
	c-13.49,16.49-3.69,27.87-3.1,29.56l-4.68,21.59l1.05,7.23l0.52,2.15l53.45,27.93c3.04-14.62,0.1-27.08-10.99-36.6l10.73-33.38
	C663.81,254.77,660.82,238.35,651.01,226.04z"/>
<path class="st5" d="M608.5,388.19h-17.15c-1.95,0-3.6-1.44-3.88-3.37c-1.06-7.79-1.06-15.69,0-23.48c0.27-1.91,1.89-3.33,3.81-3.37
	c5.39-2.42,11.2-2.42,17.27,0c1.14,0.02,2.22,0.54,2.95,1.42c0.76,0.92,1.06,2.13,0.82,3.3c-1.38,6.85-1.38,13.91,0,20.77
	c0.24,1.17-0.06,2.38-0.82,3.3C610.77,387.67,609.67,388.19,608.5,388.19z"/>
<path class="st8" d="M606.71,366.93h-14.43c-0.5,0-0.9-0.4-0.91-0.9c0-0.5,0.4-0.9,0.9-0.91c0,0,0.01,0,0.01,0h14.43
	c0.5,0,0.9,0.4,0.91,0.9c0,0.5-0.4,0.9-0.9,0.91C606.72,366.93,606.71,366.93,606.71,366.93z"/>
<path class="st8" d="M606.71,374.15h-14.43c-0.5,0-0.9-0.4-0.91-0.9c0-0.5,0.4-0.9,0.9-0.91c0,0,0.01,0,0.01,0h14.43
	c0.5,0,0.9,0.4,0.91,0.9c0,0.5-0.4,0.9-0.9,0.91C606.72,374.15,606.71,374.15,606.71,374.15z"/>
<path class="st8" d="M606.71,381.36h-14.43c-0.5,0.01-0.91-0.39-0.91-0.89c-0.01-0.5,0.39-0.91,0.89-0.91c0.01,0,0.01,0,0.02,0
	h14.43c0.5-0.01,0.91,0.39,0.91,0.89c0.01,0.5-0.39,0.91-0.89,0.91C606.72,381.36,606.71,381.36,606.71,381.36z"/>
<path class="st5" d="M525.5,226.19h-17.15c-1.95,0-3.6-1.44-3.88-3.37c-1.06-7.79-1.06-15.69,0-23.48c0.27-1.91,1.89-3.33,3.81-3.37
	c5.39-2.42,11.2-2.42,17.27,0c1.14,0.02,2.22,0.54,2.95,1.42c0.76,0.92,1.06,2.13,0.82,3.3c-1.38,6.85-1.38,13.91,0,20.77
	c0.24,1.17-0.06,2.38-0.82,3.3C527.77,225.67,526.67,226.19,525.5,226.19z"/>
<path class="st8" d="M523.71,204.93h-14.43c-0.5,0-0.91-0.4-0.91-0.89s0.4-0.91,0.89-0.91c0.01,0,0.01,0,0.02,0h14.43
	c0.5,0,0.91,0.4,0.91,0.89s-0.4,0.91-0.89,0.91C523.72,204.93,523.71,204.93,523.71,204.93z"/>
<path class="st8" d="M523.71,212.15h-14.43c-0.5,0-0.91-0.4-0.91-0.89s0.4-0.91,0.89-0.91c0.01,0,0.01,0,0.02,0h14.43
	c0.5,0,0.91,0.4,0.91,0.89s-0.4,0.91-0.89,0.91C523.72,212.15,523.71,212.15,523.71,212.15z"/>
<path class="st8" d="M523.71,219.36h-14.43c-0.5,0-0.91-0.4-0.91-0.89s0.4-0.91,0.89-0.91c0.01,0,0.01,0,0.02,0h14.43
	c0.5,0,0.91,0.4,0.91,0.89s-0.4,0.91-0.89,0.91C523.72,219.36,523.71,219.36,523.71,219.36z"/>
<path class="st5" d="M224.5,270.19h-17.15c-1.95,0-3.6-1.44-3.88-3.37c-1.06-7.79-1.06-15.69,0-23.48c0.27-1.91,1.89-3.33,3.81-3.37
	c5.39-2.42,11.2-2.42,17.27,0c1.14,0.02,2.22,0.54,2.95,1.42c0.76,0.92,1.06,2.13,0.82,3.3c-1.38,6.85-1.38,13.91,0,20.77
	c0.24,1.17-0.06,2.38-0.82,3.3C226.77,269.67,225.67,270.19,224.5,270.19z"/>
<path class="st8" d="M222.71,248.93h-14.43c-0.5,0-0.91-0.4-0.91-0.89s0.4-0.91,0.89-0.91c0.01,0,0.01,0,0.02,0h14.43
	c0.5,0,0.91,0.4,0.91,0.89s-0.4,0.91-0.89,0.91C222.72,248.93,222.71,248.93,222.71,248.93z"/>
<path class="st8" d="M222.71,256.15h-14.43c-0.5,0-0.91-0.4-0.91-0.89s0.4-0.91,0.89-0.91c0.01,0,0.01,0,0.02,0h14.43
	c0.5,0,0.91,0.4,0.91,0.89s-0.4,0.91-0.89,0.91C222.72,256.15,222.71,256.15,222.71,256.15z"/>
<path class="st8" d="M222.71,263.36h-14.43c-0.5,0-0.91-0.4-0.91-0.89c0-0.5,0.4-0.91,0.89-0.91c0.01,0,0.01,0,0.02,0h14.43
	c0.5,0,0.91,0.4,0.91,0.89c0,0.5-0.4,0.91-0.89,0.91C222.72,263.36,222.71,263.36,222.71,263.36z"/>
<path class="st10" d="M613.53,366.27c3.13-1.85,4.17-5.89,2.32-9.03c-0.2-0.33-0.42-0.65-0.68-0.94l11.77-20.25l-12.15,0.68
	l-9.32,19.12c-2.61,2.56-2.65,6.76-0.09,9.37C607.54,367.42,610.9,367.85,613.53,366.27L613.53,366.27z"/>
<path class="st7" d="M618.28,351.39l-10.88-8.47l19.77-38.31l-7.41-48.79c-1.38-9.07,4.86-17.55,13.94-18.93
	c1.01-0.15,2.02-0.21,3.04-0.18l0,0c9.17,0.31,16.35,7.99,16.06,17.16l-1.83,55.56L618.28,351.39z"/>
<path class="st11" d="M92.39,340.92c2.59-2.6,2.58-6.81-0.02-9.4c-0.28-0.28-0.58-0.53-0.9-0.75l10.58-52.56l-11.69,3.75
	l-8.47,50.84c-1.9,3.17-0.87,7.27,2.29,9.17C86.83,343.55,90.22,343.12,92.39,340.92L92.39,340.92z"/>
<path class="st7" d="M108.01,229.71l-7.25-5.47c0,0-6.4-0.45-7.53,11.08s-3.46,34.01-3.46,34.01l-11.09,51.39l15.36,3.37
	l11.88-55.46l7.13-16.47L108.01,229.71z"/>
<polygon class="st11" points="96.06,313.62 136.91,312.94 140.32,285.02 96.06,285.02 "/>
<polygon class="st11" points="132.83,485.43 142.26,485.43 146.75,449.05 132.83,449.05 "/>
<polygon class="st11" points="73.74,486.3 83.17,486.23 87.4,449.82 75.14,452.64 "/>
<polygon class="st12" points="103.24,260.98 101.1,266.54 101.53,272.09 143.35,286.58 141.28,262.26 136.58,256.7 "/>
<circle class="st11" cx="121.18" cy="196.04" r="14.94"/>
<path class="st6" d="M130.49,480.77l14.91-0.89v6.39l14.18,9.79c1.81,1.25,2.27,3.74,1.02,5.55c-0.74,1.08-1.97,1.72-3.28,1.72
	h-17.75l-3.06-6.32l-1.19,6.32h-6.69L130.49,480.77z"/>
<path class="st6" d="M70.51,481.67l14.9-0.99l0.04,6.39l14.24,9.69c1.82,1.24,2.29,3.72,1.06,5.54c-0.74,1.08-1.96,1.74-3.27,1.75
	l-17.75,0.12l-3.1-6.3l-1.15,6.33l-6.69,0.05L70.51,481.67z"/>
<path class="st6" d="M70.8,458.41l6.87-54.9l8.17-57.88C79.86,334.51,93.33,300,93.33,300l1.9,0.09l43.05,8.12l-0.01-0.04
	c8.81,24.02,11.72,35.88,11.24,61.45l-1.73,91.93h0.54c1.88,0,3.4,1.52,3.4,3.4c0,1.88-1.52,3.4-3.4,3.4H131.3
	c-1.88,0-3.41-1.52-3.41-3.4c0-1.88,1.52-3.41,3.4-3.41c0,0,0.01,0,0.01,0h0.44L116.11,352.1l-13.25,45.96l-14.98,59.92
	c5.45-1.36,4.6,1.79,4.6,3.58c0,1.88-1.52,3.4-3.4,3.4H72.06c-1.88,0-3.4-1.52-3.4-3.4C68.65,460.18,69.5,458.92,70.8,458.41
	L70.8,458.41z"/>
<path class="st7" d="M89.98,301.79l1.36-13.62c0.29-1.14,1.28-1.96,2.45-2.04c0.57-6.49,2.95-34.48,3.1-35.7l0.01-0.05l1.09-23.19
	c0.08-1.74,1.46-3.15,3.2-3.26l5.73-0.37c0.16-0.01,0.29-0.14,0.29-0.3c0-2.66,2.16-4.82,4.82-4.82c0,0,0,0,0,0h16.98
	c2.28,0,4.19,1.69,4.48,3.95c0.02,0.16,0.15,0.27,0.31,0.27h0c3.99-0.08,7.43,2.76,8.11,6.69c2.32,13.5,6.97,44.15,4.67,61.19
	c-0.8,5.93,0.93,1.23,1.23,6.2c0.06,0.97-0.27,1.92-0.91,2.65c1.36,0.49,2.06,1.99,1.59,3.35l0.3-0.07
	c-0.37,1.46-1.85,2.34-3.31,1.98c0,0,0,0,0,0l-44.42,6.02C99.61,310.28,89.61,303.25,89.98,301.79z"/>
<path class="st11" d="M208.67,246.42c-1.05,3.52-4.75,5.52-8.27,4.46c-0.38-0.11-0.74-0.26-1.09-0.43l-17.17,15.67l-2.28-12.06
	l16.67-12.99c1.88-3.18,5.97-4.23,9.15-2.36C208.33,240.28,209.57,243.47,208.67,246.42L208.67,246.42z"/>
<path class="st7" d="M148.9,234.44c0,0-5.99-13.53-13.55-10.84s-3.66,15.82-3.66,15.82l28.41,42.81c0,0,40.98-26.29,36-26.47
	s-6.47-9.25-6.47-9.25l-21.66,10.82l-0.73-3.85l-1.17,1.17l-3.03-2.39L148.9,234.44z"/>
<circle class="st10" cx="638.68" cy="198.72" r="20.86"/>
<path class="st6" d="M705.62,229.41c-2.41,3.41-5.92,5.88-9.94,7c-1.61,0.48-3.27,0.76-4.95,0.84c-0.21-1.9-0.7-3.75-1.47-5.5
	c0.08,1.86-0.18,3.72-0.76,5.49c-2.52-0.14-4.98-0.8-7.24-1.94c-4.49-2.26-7.65-6.5-8.53-11.44c-0.88-5.7,1.7-11.31,2.64-17
	c0.94-5.7-0.82-12.91-6.4-14.41c-4.25-1.14-3.77-0.65-7.3,1.97c3.67,5.43-9.89,25.33-15.44,23.59c-3.14-0.98-5.15-3.86-5.79-3.86
	c-4.36,7.51,3.85,20.18-4.43,22.81l0.68-0.68c5-6.15-5.45-19.16-0.45-25.3c1.39-1.72,2.88-3.76,2.47-5.93
	c-0.39-2.07-3.67-3.16-4.63-1.46c1.73-3.96-0.82-9.24-5.05-10.26c-3.75-0.9-3.68,0.21-7.45,0.69c-0.25-1.63-0.71-3.22-1.37-4.72
	c0.07,1.62-0.12,3.25-0.56,4.81c-1.33-0.03-2.61-0.49-3.65-1.32c-3.07-2.47-2.45-7.67,0.29-10.51c2.75-2.84,6.82-3.86,10.71-4.52
	c1.13-7.88,22.86-8.7,25.74-0.83c1.23-5.88,8.58-8.93,14.3-7.1s9.69,7.16,11.77,12.79c2.09,5.62,2.67,11.68,3.96,17.53
	s3.46,11.83,7.94,15.82c4.48,3.99,11.77,5.31,16.49,1.6C708.58,221.54,708,225.94,705.62,229.41z"/>
<path class="st0" d="M901.3,277.01l-2.92,14.65c-0.22,1.12-0.45,2.26-0.7,3.39c-2.44-0.51-4.97-0.36-7.34,0.41
	c1.88,2.69,3.56,5.5,5.04,8.43c-1.84,5.67-4.54,10.91-9.06,14.7c-6.14,5.03-14.46,6.5-21.95,3.86l0.13-0.58
	c-4.86-9.43-2.22-21.32,3.82-30.03c3.08-4.3,6.73-8.16,10.85-11.47c4.08-3.4,8.49-6.45,12.86-9.46c2.73-1.87,6.46-1.18,8.33,1.54
	C901.27,273.78,901.61,275.42,901.3,277.01z"/>
<path id="a7585634-9c2c-4d81-a429-c019b32aabf2-414" class="st1" d="M865.4,357.7c-1.23-8.95-2.49-18.02-1.63-27.07
	c0.77-8.04,3.22-15.89,8.21-22.32c2.65-3.41,5.87-6.33,9.53-8.63c0.95-0.6,1.83,0.91,0.88,1.51c-6.32,3.99-11.21,9.89-13.96,16.85
	c-3.04,7.73-3.53,16.16-3,24.37c0.32,4.97,0.99,9.9,1.66,14.83c0.11,0.46-0.15,0.93-0.61,1.07
	C866.02,358.43,865.54,358.16,865.4,357.7L865.4,357.7z"/>
<path class="st9" d="M934.94,504.99L1.19,505.3c-0.66,0-1.19-0.54-1.18-1.2c0-0.65,0.53-1.18,1.18-1.18l933.75-0.31
	c0.66,0,1.19,0.54,1.18,1.2C936.12,504.46,935.59,504.99,934.94,504.99z"/>
<path class="st6" d="M103.6,186.89c-2.29,1.1-4.86-0.55-6.83-2.19l0.71,0.61c-3.5,3.4-5.13,8.3-5.93,13.11
	c-0.8,4.81-0.89,9.73-1.9,14.51c-1.01,4.77-3.1,9.57-7,12.49c-5.23,3.92-12.44,3.66-18.86,2.46c-0.09-0.02-0.17-0.03-0.25-0.05
	c1.73-4.99,2.43-10.27,2.06-15.53c-1.72,5.27-4.65,10.07-8.55,14.02c-4.25-1.17-8.41-2.68-12.42-4.52
	c-2.59-1.19-5.39-2.83-6.11-5.59c-0.72-2.74,0.95-5.62,3.2-7.36s4.99-2.64,7.55-3.87c2.55-1.23,5.07-2.98,6.09-5.63
	c2.35-6.08-4.35-13.07-1.74-19.05c1.29-2.94,4.45-4.54,7.41-5.77c4.53-1.88,9.18-3.45,13.93-4.7c4.16-1.1,8.51-1.95,12.75-1.23
	s8.4,3.3,9.92,7.33c2.55,0.86,5.25,1.83,6.89,3.97C106.16,182.05,106.03,185.73,103.6,186.89z"/>
<path class="st6" d="M123.99,179.84c-6.55-5.17-11.85-4.29-15.94-1.08c-0.69-0.76-3.61,1.34-4.6,1.04l-3.58,6.72
	c-1.84,3.25-2.6,6.57-2.3,8.44c-3.39,9.51,4.65,15.93,14.16,19.32c3.79,1.36,7.93,1.42,11.77,0.17l0.12-1.62l0.72,1.33
	c0,0,8.69,17.9,10.75,18.7c-1.25-3.23-4.53-18.6-5.45-21.8c-1.26-4.36-0.4-11.28,0.34-15.53c0.46-2.62,0.48-5.29,0.07-7.92
	l-0.02-0.11l2.03,4.11l4.56-2.87C134.86,183.66,134.82,177.58,123.99,179.84z"/>
</svg>
