<?xml version="1.0" standalone="no"?>
<!DOCTYPE svg PUBLIC "-//W3C//DTD SVG 20010904//EN"
 "http://www.w3.org/TR/2001/REC-SVG-20010904/DTD/svg10.dtd">
<svg version="1.0" xmlns="http://www.w3.org/2000/svg"
 width="384.000000pt" height="384.000000pt" viewBox="0 0 384.000000 384.000000"
 preserveAspectRatio="xMidYMid meet">
<metadata>
Created by potrace 1.14, written by Peter Selinger 2001-2017
</metadata>
<g transform="translate(0.000000,384.000000) scale(0.100000,-0.100000)"
fill="#000000" stroke="none">
<path d="M1711 3400 c-5 -11 -7 -2821 -2 -2950 l1 -25 205 1 c112 0 208 3 212
7 7 8 11 2919 3 2958 l-5 24 -203 0 c-172 0 -205 -2 -211 -15z"/>
<path d="M868 2772 c-13 -3 -15 -101 -15 -852 0 -603 4 -850 11 -851 40 -3
393 -4 404 -1 9 3 12 183 12 856 l0 851 -198 0 c-109 0 -205 -1 -214 -3z"/>
<path d="M2570 2772 c-16 -6 -14 -1699 3 -1704 10 -3 386 -2 408 1 11 2 6
1701 -5 1702 -37 3 -398 3 -406 1z"/>
<path d="M0 1920 l0 -427 213 1 212 1 0 425 0 425 -212 1 -213 1 0 -427z"/>
<path d="M3422 2341 c-7 -5 -11 -815 -4 -842 1 -3 97 -6 212 -6 l210 0 -2 426
-3 426 -202 1 c-111 1 -206 -2 -211 -5z"/>
</g>
</svg>
